<svg width="846.89375px" height="281.59999999999997px" xmlns="http://www.w3.org/2000/svg" viewBox="-173.44687499999998 -65.79999999999998 846.89375 281.59999999999997" style="background: rgb(29, 14, 11);" preserveAspectRatio="xMidYMid"><defs><filter id="editing-lego" x="-100%" y="-100%" width="300%" height="300%"><feFlood flood-color="#301908" result="f1"></feFlood><feFlood flood-color="#303030" result="f2"></feFlood><feMorphology operator="dilate" radius="3" in="SourceAlpha"></feMorphology><feConvolveMatrix order="5,5" divisor="1" result="cm1" kernelMatrix="0 1 1 1 0  1 0 0 0 1  1 0 0 0 1  1 0 0 0 1  0 1 1 1 0"></feConvolveMatrix><feComposite operator="in" in="f1" in2="cm1" result="c1"></feComposite><feMorphology operator="dilate" radius="3"></feMorphology><feConvolveMatrix order="5,5" divisor="1" result="cm2" kernelMatrix="0 1 1 1 0  1 0 0 0 1  1 0 0 0 1  1 0 0 0 1  0 1 1 1 0"></feConvolveMatrix><feComposite operator="in" in="f2" in2="cm2" result="c2"></feComposite><feMerge><feMergeNode in="c2"></feMergeNode><feMergeNode in="c1"></feMergeNode><feMergeNode in="SourceGraphic"></feMergeNode></feMerge></filter></defs><g filter="url(#editing-lego)"><g transform="translate(-54.8250150680542, 127.31499481201172)"><path d="M36.15-100.27L36.15 0L31.79 0L31.79-100.27L36.15-100.27ZM27.43-100.27L27.43 0L23.07 0L23.07-100.27L27.43-100.27ZM18.71-100.27L18.71 0L14.35 0L14.35-100.27L18.71-100.27ZM9.99-100.27L9.99 0L5.63 0L5.63-100.27L9.99-100.27ZM93.61 0L67.99-50.13L93.61-100.27L98.45-100.27L72.84-50.13L98.45 0L93.61 0ZM83.86 0L58.25-50.13L83.86-100.27L88.70-100.27L63.09-50.13L88.70 0L83.86 0ZM74.11 0L48.50-50.13L74.11-100.27L78.95-100.27L53.34-50.13L78.95 0L74.11 0ZM64.36 0L38.69-50.13L64.36-100.27L69.21-100.27L43.53-50.13L69.21 0L64.36 0ZM168.50-29.43L150.10-29.43L151.85-33.79L166.75-33.79L168.50-29.43ZM172.01-20.71L146.71-20.71L148.40-25.07L170.14-25.07L172.01-20.71ZM175.40-11.99L143.31-11.99L145.01-16.35L173.59-16.35L175.40-11.99ZM145.19-94.39L107.89 0L103.17 0L142.83-100.27L147.55-100.27L187.15 0L182.49 0L145.19-94.39ZM112.56 0L145.74-84.04L148.22-78.47L117.22 0L112.56 0ZM121.94 0L150.58-72.54L152.88-66.54L126.66 0L121.94 0ZM131.33 0L155.18-60.55L157.48-54.43L135.99 0L131.33 0ZM175.65-100.27L215.30 0L210.58 0L170.98-100.27L175.65-100.27ZM161.60-100.27L166.26-100.27L205.92 0L201.26 0L161.60-100.27ZM152.21-100.27L156.88-100.27L196.54 0L191.81 0L152.21-100.27ZM295.11 0L295.11-36.57L299.46-44.80L299.46 0L295.11 0ZM303.82 0L303.82-53.28L308.18-61.52L308.18 0L303.82 0ZM312.54 0L312.54-69.75L316.90-78.04L316.90 0L312.54 0ZM315.75-100.27L283.30-38.63L280.82-43.17L310.85-100.27L315.75-100.27ZM305.88-100.27L278.27-48.13L275.73-52.74L300.92-100.27L305.88-100.27ZM249.09 0L249.09-44.32L253.45-36.09L253.45 0L249.09 0ZM240.37 0L240.37-60.91L244.73-52.68L244.73 0L240.37 0ZM231.65 0L231.65-77.50L236.01-69.21L236.01 0L231.65 0ZM227.84-100.27L266.89-26.16L261.99-26.16L227.29-91.97L227.29 0L222.93 0L222.93-100.27L227.84-100.27ZM237.77-100.27L276.76-26.16L271.79-26.16L232.80-100.27L237.77-100.27ZM321.26 0L321.26-91.97L286.57-26.16L281.60-26.16L242.67-100.27L247.58-100.27L284.15-30.76L320.66-100.27L325.62-100.27L325.62 0L321.26 0ZM370.06-45.53L370.06-49.89L396.34-49.89L396.34-49.89Q402.33-49.89 406.48-53.77L406.48-53.77L406.48-53.77Q410.63-57.64 410.63-64.79L410.63-64.79L410.63-64.79Q410.63-70.05 406.27-74.26L406.27-74.26L406.27-74.26Q401.91-78.47 396.34-78.47L396.34-78.47L358.92-78.47L358.92 0L354.56 0L354.56-82.83L396.34-82.83L396.34-82.83Q403.73-82.83 409.36-77.35L409.36-77.35L409.36-77.35Q414.99-71.87 414.99-64.79L414.99-64.79L414.99-64.79Q414.99-56.07 409.54-50.80L409.54-50.80L409.54-50.80Q404.09-45.53 396.34-45.53L396.34-45.53L370.06-45.53ZM370.06-36.81L370.06-41.17L396.34-41.17L396.34-41.17Q405.79-41.17 412.57-47.80L412.57-47.80L412.57-47.80Q419.35-54.43 419.35-64.79L419.35-64.79L419.35-64.79Q419.35-73.69 412.42-80.44L412.42-80.44L412.42-80.44Q405.48-87.19 396.34-87.19L396.34-87.19L350.20-87.19L350.20 0L345.84 0L345.84-91.55L396.34-91.55L396.34-91.55Q403.54-91.55 409.87-87.85L409.87-87.85L409.87-87.85Q416.20-84.16 419.95-77.95L419.95-77.95L419.95-77.95Q423.71-71.75 423.71-64.79L423.71-64.79L423.71-64.79Q423.71-52.86 415.62-44.83L415.62-44.83L415.62-44.83Q407.54-36.81 396.34-36.81L396.34-36.81L370.06-36.81ZM370.06-28.09L370.06-32.45L396.34-32.45L396.34-32.45Q404.82-32.45 412.08-36.63L412.08-36.63L412.08-36.63Q419.35-40.81 423.71-48.29L423.71-48.29L423.71-48.29Q428.07-55.76 428.07-64.79L428.07-64.79L428.07-64.79Q428.07-72.96 423.74-80.13L423.74-80.13L423.74-80.13Q419.41-87.31 412.08-91.61L412.08-91.61L412.08-91.61Q404.76-95.91 396.34-95.91L396.34-95.91L341.48-95.91L341.48 0L337.13 0L337.13-100.27L396.34-100.27L396.34-100.27Q405.85-100.27 414.20-95.39L414.20-95.39L414.20-95.39Q422.56-90.52 427.49-82.31L427.49-82.31L427.49-82.31Q432.43-74.11 432.43-64.79L432.43-64.79L432.43-64.79Q432.43-54.01 427.79-45.83L427.79-45.83L427.79-45.83Q423.16-37.66 415.23-33.06L415.23-33.06L426.49 0L421.89 0L411.11-31L411.11-31Q408.69-30.03 407.42-29.67L407.42-29.67L417.53 0L412.93 0L403.06-28.64L403.06-28.64Q402.52-28.52 399.19-28.21L399.19-28.21L408.57 0L403.97 0L394.71-28.09L390.77-28.09L399.61 0L395.01 0L386.11-28.09L370.06-28.09ZM367.64-69.75L367.64 0L363.28 0L363.28-74.11L396.34-74.11L396.34-74.11Q400.40-74.11 403.33-71.35L403.33-71.35L403.33-71.35Q406.27-68.60 406.27-64.79L406.27-64.79L406.27-64.79Q406.27-54.25 396.34-54.25L396.34-54.25L370.06-54.25L370.06-58.61L396.34-58.61L396.34-58.61Q398.94-58.61 400.43-59.97L400.43-59.97L400.43-59.97Q401.91-61.33 401.91-64.79L401.91-64.79L401.91-64.79Q401.91-66.90 400.31-68.33L400.31-68.33L400.31-68.33Q398.70-69.75 396.34-69.75L396.34-69.75L367.64-69.75ZM496.97-44.08L496.97-44.08L496.97-100.27L501.33-100.27L501.33-44.08L501.33-44.08Q501.33-34.88 494.06-28.34L494.06-28.34L494.06-28.34Q486.80-21.80 476.63-21.80L476.63-21.80L476.63-21.80Q466.45-21.80 459.19-28.34L459.19-28.34L459.19-28.34Q451.92-34.88 451.92-44.08L451.92-44.08L451.92-100.27L456.28-100.27L456.28-44.08L456.28-44.08Q456.28-36.69 462.25-31.42L462.25-31.42L462.25-31.42Q468.21-26.16 476.63-26.16L476.63-26.16L476.63-26.16Q485.04-26.16 491.00-31.42L491.00-31.42L491.00-31.42Q496.97-36.69 496.97-44.08ZM505.69-44.08L505.69-44.08L505.69-100.27L510.05-100.27L510.05-44.08L510.05-44.08Q510.05-37.78 507.38-32.06L507.38-32.06L507.38-32.06Q504.72-26.34 500.24-22.16L500.24-22.16L500.24-22.16Q495.76-17.98 489.58-15.53L489.58-15.53L489.58-15.53Q483.41-13.08 476.63-13.08L476.63-13.08L476.63-13.08Q469.84-13.08 463.67-15.53L463.67-15.53L463.67-15.53Q457.49-17.98 453.01-22.16L453.01-22.16L453.01-22.16Q448.53-26.34 445.87-32.06L445.87-32.06L445.87-32.06Q443.20-37.78 443.20-44.08L443.20-44.08L443.20-100.27L447.56-100.27L447.56-44.08L447.56-44.08Q447.56-36.87 451.47-30.73L451.47-30.73L451.47-30.73Q455.37-24.58 462.06-21.01L462.06-21.01L462.06-21.01Q468.75-17.44 476.63-17.44L476.63-17.44L476.63-17.44Q484.50-17.44 491.19-21.01L491.19-21.01L491.19-21.01Q497.88-24.58 501.78-30.73L501.78-30.73L501.78-30.73Q505.69-36.87 505.69-44.08ZM514.41-44.08L514.41-44.08L514.41-100.27L518.77-100.27L518.77-44.08L518.77-44.08Q518.77-36.03 515.41-28.67L515.41-28.67L515.41-28.67Q512.04-21.31 506.41-15.98L506.41-15.98L506.41-15.98Q500.78-10.66 492.97-7.51L492.97-7.51L492.97-7.51Q485.16-4.36 476.63-4.36L476.63-4.36L476.63-4.36Q468.09-4.36 460.28-7.51L460.28-7.51L460.28-7.51Q452.47-10.66 446.84-15.98L446.84-15.98L446.84-15.98Q441.21-21.31 437.84-28.67L437.84-28.67L437.84-28.67Q434.48-36.03 434.48-44.08L434.48-44.08L434.48-100.27L438.84-100.27L438.84-44.08L438.84-44.08Q438.84-34.51 443.93-26.37L443.93-26.37L443.93-26.37Q449.02-18.22 457.70-13.47L457.70-13.47L457.70-13.47Q466.39-8.72 476.63-8.72L476.63-8.72L476.63-8.72Q486.86-8.72 495.55-13.47L495.55-13.47L495.55-13.47Q504.23-18.22 509.32-26.37L509.32-26.37L509.32-26.37Q514.41-34.51 514.41-44.08ZM523.13-44.08L523.13-44.08L523.13-100.27L527.48-100.27L527.48-44.08L527.48-44.08Q527.48-31 520.64-19.83L520.64-19.83L520.64-19.83Q513.80-8.66 502.08-2.15L502.08-2.15L502.08-2.15Q490.37 4.36 476.63 4.36L476.63 4.36L476.63 4.36Q462.88 4.36 451.17-2.15L451.17-2.15L451.17-2.15Q439.45-8.66 432.61-19.83L432.61-19.83L432.61-19.83Q425.77-31 425.77-44.08L425.77-44.08L425.77-100.27L430.13-100.27L430.13-44.08L430.13-44.08Q430.13-35.18 433.82-27.00L433.82-27.00L433.82-27.00Q437.51-18.83 443.75-12.93L443.75-12.93L443.75-12.93Q449.98-7.02 458.61-3.51L458.61-3.51L458.61-3.51Q467.24 0 476.63 0L476.63 0L476.63 0Q486.01 0 494.64-3.51L494.64-3.51L494.64-3.51Q503.27-7.02 509.50-12.93L509.50-12.93L509.50-12.93Q515.74-18.83 519.43-27.00L519.43-27.00L519.43-27.00Q523.13-35.18 523.13-44.08ZM538.63 0L538.63-100.27L542.98-100.27L542.98 0L538.63 0ZM564.78 0L564.78-100.27L569.14-100.27L569.14-21.80L604.02-21.80L604.02-17.44L569.14-17.44L569.14-13.08L604.02-13.08L604.02-8.72L569.14-8.72L569.14-4.36L604.02-4.36L604.02 0L564.78 0ZM556.06 0L556.06-100.27L560.42-100.27L560.42 0L556.06 0ZM547.34 0L547.34-100.27L551.70-100.27L551.70 0L547.34 0Z" fill="#ffffff"></path></g></g><style>text {
  font-size: 64px;
  font-family: Arial Black;
  dominant-baseline: central;
  text-anchor: middle;
}</style></svg>