<svg width="371.28125px" height="122px" xmlns="http://www.w3.org/2000/svg" viewBox="64.359375 14 371.28125 122" style="background:#fff" preserveAspectRatio="xMidYMid"><defs><filter id="editing-marble" x="-100%" y="-100%" width="300%" height="300%"><feFlood flood-color="#b44607" result="flood-1"></feFlood><feComposite operator="in" in="flood-1" in2="SourceAlpha" result="flood-2"></feComposite><feTurbulence baseFrequency="0.07" type="fractalNoise" numOctaves="1" seed="2" result="bs-1"></feTurbulence><feGaussianBlur stdDeviation="1" in="flood-2" result="bs-2"></feGaussianBlur><feDisplacementMap scale="110" in="bs-2" in2="bs-1" result="bs-3"></feDisplacementMap><feComposite operator="in" in="bs-3" in2="SourceAlpha" result="texture"></feComposite><feMerge><feMergeNode in="SourceGraphic"></feMergeNode><feMergeNode in="texture"></feMergeNode></feMerge></filter></defs><g filter="url(#editing-marble)"><g transform="translate(122.19497895240784, 97.30500030517578)"><path d="M14.14 0L0.51 0L7.81-38.91L8.51-42.24L22.21-42.24L14.14 0ZM40.13-3.78L40.13-3.78L40.13-3.78Q38.40 1.28 31.74 1.28L31.74 1.28L31.74 1.28Q26.82 1.28 23.42-4.61L23.42-4.61L23.42-4.61Q19.97-10.50 19.33-20.10L19.33-20.10L19.33-20.10Q26.37-32.96 31.23-38.27L31.23-38.27L31.23-38.27Q35.90-43.33 40.77-43.33L40.77-43.33L40.77-43.33Q43.39-43.33 45.28-41.92L45.28-41.92L45.28-41.92Q47.17-40.51 47.62-38.27L47.62-38.27L47.62-38.27Q45.44-37.38 44.42-36.67L44.42-36.67L44.42-36.67Q41.86-34.75 38.40-30.46L38.40-30.46L32.58-23.49L32.58-23.49Q31.17-21.82 30.59-21.06L30.59-21.06L30.59-21.06Q31.55-15.68 34.43-10.37L34.43-10.37L34.43-10.37Q37.18-5.31 40.13-3.78ZM73.66 1.28L73.66 1.28L73.66 1.28Q65.47 1.28 64.70-10.37L64.70-10.37L53.70-10.37L53.70-10.37Q52.42-7.42 51.52-4.86L51.52-4.86L49.86 0L40.90 0L61.06-42.24L74.82-42.24L77.50-11.14L77.50-11.14Q78.14-4.42 80.70-2.43L80.70-2.43L80.70-2.43Q78.85 1.28 73.66 1.28ZM59.20-23.17L55.68-15.04L64.51-15.04L63.74-31.49L63.74-33.22L59.20-23.17ZM89.86 0L82.50 0L94.08-42.24L107.46-42.24L110.40-18.11L122.30-42.24L133.50-42.24L134.66-10.62L134.66-10.62Q134.91-4.35 137.98-2.43L137.98-2.43L137.98-2.43Q137.28-1.15 135.23 0.06L135.23 0.06L135.23 0.06Q133.18 1.28 130.46 1.28L130.46 1.28L130.46 1.28Q127.74 1.28 126.14 0.51L126.14 0.51L126.14 0.51Q124.54-0.26 123.65-1.54L123.65-1.54L123.65-1.54Q122.05-3.84 122.05-8.26L122.05-8.26L122.05-28.03L109.44 0L101.50 0L97.02-28.74L89.86 0ZM153.86 0L140.16 0L147.97-42.05L147.97-42.05Q154.30-42.75 163.55-42.75L163.55-42.75L163.55-42.75Q172.80-42.75 177.09-40.06L177.09-40.06L177.09-40.06Q181.38-37.38 181.38-31.97L181.38-31.97L181.38-31.97Q181.38-26.56 178.59-23.17L178.59-23.17L178.59-23.17Q175.81-19.78 171.01-18.69L171.01-18.69L171.01-18.69Q172.10-13.38 174.59-9.09L174.59-9.09L174.59-9.09Q176.90-5.06 179.58-3.78L179.58-3.78L179.58-3.78Q178.62-1.09 176.67 0.10L176.67 0.10L176.67 0.10Q174.72 1.28 171.94 1.28L171.94 1.28L171.94 1.28Q169.15 1.28 166.98-0.35L166.98-0.35L166.98-0.35Q164.80-1.98 163.07-4.99L163.07-4.99L163.07-4.99Q159.42-11.52 159.04-21.82L159.04-21.82L159.49-21.82L159.49-21.82Q164.22-21.95 166.59-24.42L166.59-24.42L166.59-24.42Q168.96-26.88 168.96-32.06L168.96-32.06L168.96-32.06Q168.96-38.53 163.52-38.78L163.52-38.78L162.11-38.78L162.11-38.78Q161.54-38.78 161.22-38.72L161.22-38.72L153.86 0ZM185.54-9.47L185.54-9.47L185.54-9.47Q185.54-11.97 186.18-15.17L186.18-15.17L191.36-42.24L205.50-42.24L200.38-14.98L200.38-14.98Q199.81-11.97 199.81-9.76L199.81-9.76L199.81-9.76Q199.81-7.55 200.74-6.40L200.74-6.40L200.74-6.40Q201.66-5.25 203.39-5.25L203.39-5.25L203.39-5.25Q205.12-5.25 206.21-5.70L206.21-5.70L206.21-5.70Q207.30-6.14 208.19-7.23L208.19-7.23L208.19-7.23Q209.92-9.41 211.01-14.98L211.01-14.98L216.19-42.24L225.86-42.24L220.74-15.04L220.74-15.04Q218.94-5.95 214.02-2.30L214.02-2.30L214.02-2.30Q209.22 1.28 199.74 1.28L199.74 1.28L199.74 1.28Q192.64 1.28 188.86-1.79L188.86-1.79L188.86-1.79Q185.54-4.48 185.54-9.47ZM253.89-9.86L253.89-9.86L253.89-9.86Q255.10-8.32 255.10-5.34L255.10-5.34L255.10-5.34Q255.10-2.37 252.83-0.54L252.83-0.54L252.83-0.54Q250.56 1.28 246.59 1.28L246.59 1.28L246.59 1.28Q244.29 1.28 240.70 0.77L240.70 0.77L240.70 0.77Q233.66-0.32 231.65-0.32L231.65-0.32L231.65-0.32Q229.63-0.32 228.80-0.22L228.80-0.22L228.80-0.22Q227.97-0.13 226.62 0L226.62 0L234.37-42.24L248.38-42.24L241.98-7.04L241.98-7.04Q242.82-6.91 243.58-6.91L243.58-6.91L245.18-6.91L245.18-6.91Q250.56-6.91 253.89-9.86Z" fill="#e49c49"></path></g></g><style>text {
<svg width="371.28125px" height="122px" xmlns="http://www.w3.org/2000/svg" viewBox="64.359375 14 371.28125 122" style="background:#fff" preserveAspectRatio="xMidYMid"><defs><filter id="editing-marble" x="-100%" y="-100%" width="300%" height="300%"><feFlood flood-color="#b44607" result="flood-1"></feFlood><feComposite operator="in" in="flood-1" in2="SourceAlpha" result="flood-2"></feComposite><feTurbulence baseFrequency="0.07" type="fractalNoise" numOctaves="1" seed="2" result="bs-1"></feTurbulence><feGaussianBlur stdDeviation="1" in="flood-2" result="bs-2"></feGaussianBlur><feDisplacementMap scale="110" in="bs-2" in2="bs-1" result="bs-3"></feDisplacementMap><feComposite operator="in" in="bs-3" in2="SourceAlpha" result="texture"></feComposite><feMerge><feMergeNode in="SourceGraphic"></feMergeNode><feMergeNode in="texture"></feMergeNode></feMerge></filter></defs><g filter="url(#editing-marble)"><g transform="translate(122.19497895240784, 97.30500030517578)"><path d="M14.14 0L0.51 0L7.81-38.91L8.51-42.24L22.21-42.24L14.14 0ZM40.13-3.78L40.13-3.78L40.13-3.78Q38.40 1.28 31.74 1.28L31.74 1.28L31.74 1.28Q26.82 1.28 23.42-4.61L23.42-4.61L23.42-4.61Q19.97-10.50 19.33-20.10L19.33-20.10L19.33-20.10Q26.37-32.96 31.23-38.27L31.23-38.27L31.23-38.27Q35.90-43.33 40.77-43.33L40.77-43.33L40.77-43.33Q43.39-43.33 45.28-41.92L45.28-41.92L45.28-41.92Q47.17-40.51 47.62-38.27L47.62-38.27L47.62-38.27Q45.44-37.38 44.42-36.67L44.42-36.67L44.42-36.67Q41.86-34.75 38.40-30.46L38.40-30.46L32.58-23.49L32.58-23.49Q31.17-21.82 30.59-21.06L30.59-21.06L30.59-21.06Q31.55-15.68 34.43-10.37L34.43-10.37L34.43-10.37Q37.18-5.31 40.13-3.78ZM73.66 1.28L73.66 1.28L73.66 1.28Q65.47 1.28 64.70-10.37L64.70-10.37L53.70-10.37L53.70-10.37Q52.42-7.42 51.52-4.86L51.52-4.86L49.86 0L40.90 0L61.06-42.24L74.82-42.24L77.50-11.14L77.50-11.14Q78.14-4.42 80.70-2.43L80.70-2.43L80.70-2.43Q78.85 1.28 73.66 1.28ZM59.20-23.17L55.68-15.04L64.51-15.04L63.74-31.49L63.74-33.22L59.20-23.17ZM89.86 0L82.50 0L94.08-42.24L107.46-42.24L110.40-18.11L122.30-42.24L133.50-42.24L134.66-10.62L134.66-10.62Q134.91-4.35 137.98-2.43L137.98-2.43L137.98-2.43Q137.28-1.15 135.23 0.06L135.23 0.06L135.23 0.06Q133.18 1.28 130.46 1.28L130.46 1.28L130.46 1.28Q127.74 1.28 126.14 0.51L126.14 0.51L126.14 0.51Q124.54-0.26 123.65-1.54L123.65-1.54L123.65-1.54Q122.05-3.84 122.05-8.26L122.05-8.26L122.05-28.03L109.44 0L101.50 0L97.02-28.74L89.86 0ZM153.86 0L140.16 0L147.97-42.05L147.97-42.05Q154.30-42.75 163.55-42.75L163.55-42.75L163.55-42.75Q172.80-42.75 177.09-40.06L177.09-40.06L177.09-40.06Q181.38-37.38 181.38-31.97L181.38-31.97L181.38-31.97Q181.38-26.56 178.59-23.17L178.59-23.17L178.59-23.17Q175.81-19.78 171.01-18.69L171.01-18.69L171.01-18.69Q172.10-13.38 174.59-9.09L174.59-9.09L174.59-9.09Q176.90-5.06 179.58-3.78L179.58-3.78L179.58-3.78Q178.62-1.09 176.67 0.10L176.67 0.10L176.67 0.10Q174.72 1.28 171.94 1.28L171.94 1.28L171.94 1.28Q169.15 1.28 166.98-0.35L166.98-0.35L166.98-0.35Q164.80-1.98 163.07-4.99L163.07-4.99L163.07-4.99Q159.42-11.52 159.04-21.82L159.04-21.82L159.49-21.82L159.49-21.82Q164.22-21.95 166.59-24.42L166.59-24.42L166.59-24.42Q168.96-26.88 168.96-32.06L168.96-32.06L168.96-32.06Q168.96-38.53 163.52-38.78L163.52-38.78L162.11-38.78L162.11-38.78Q161.54-38.78 161.22-38.72L161.22-38.72L153.86 0ZM185.54-9.47L185.54-9.47L185.54-9.47Q185.54-11.97 186.18-15.17L186.18-15.17L191.36-42.24L205.50-42.24L200.38-14.98L200.38-14.98Q199.81-11.97 199.81-9.76L199.81-9.76L199.81-9.76Q199.81-7.55 200.74-6.40L200.74-6.40L200.74-6.40Q201.66-5.25 203.39-5.25L203.39-5.25L203.39-5.25Q205.12-5.25 206.21-5.70L206.21-5.70L206.21-5.70Q207.30-6.14 208.19-7.23L208.19-7.23L208.19-7.23Q209.92-9.41 211.01-14.98L211.01-14.98L216.19-42.24L225.86-42.24L220.74-15.04L220.74-15.04Q218.94-5.95 214.02-2.30L214.02-2.30L214.02-2.30Q209.22 1.28 199.74 1.28L199.74 1.28L199.74 1.28Q192.64 1.28 188.86-1.79L188.86-1.79L188.86-1.79Q185.54-4.48 185.54-9.47ZM253.89-9.86L253.89-9.86L253.89-9.86Q255.10-8.32 255.10-5.34L255.10-5.34L255.10-5.34Q255.10-2.37 252.83-0.54L252.83-0.54L252.83-0.54Q250.56 1.28 246.59 1.28L246.59 1.28L246.59 1.28Q244.29 1.28 240.70 0.77L240.70 0.77L240.70 0.77Q233.66-0.32 231.65-0.32L231.65-0.32L231.65-0.32Q229.63-0.32 228.80-0.22L228.80-0.22L228.80-0.22Q227.97-0.13 226.62 0L226.62 0L234.37-42.24L248.38-42.24L241.98-7.04L241.98-7.04Q242.82-6.91 243.58-6.91L243.58-6.91L245.18-6.91L245.18-6.91Q250.56-6.91 253.89-9.86Z" fill="#e49c49"></path></g></g><style>text {
  font-size: 64px;
  font-family: Arial Black;
  dominant-baseline: central;
  text-anchor: middle;
}</style></svg>